<svg xmlns="http://www.w3.org/2000/svg" viewBox="0 0 500 500"><g id="freepik--witch-hat--inject-38"><path d="M324.67,254.79c-1.58-1.19-42-43.49-95.06-71.59-52.13-27.6-107.87-41.07-108.88-41.41,0,0,52.14-8.12,67.6-3.29A346.65,346.65,0,0,1,224.24,152c6.34,2.78,12.3,5.65,17.89,8.52,2.21,1.11,4.33,2.24,6.42,3.38q4.32,2.3,8.24,4.57A324.55,324.55,0,0,1,286.93,188c2.78,2,5.15,3.82,7.06,5.3,1,.79,1.95,1.48,2.69,2.06,1.24,1,2.14,1.69,2.68,2.07C304.74,201.16,324.79,254.86,324.67,254.79Z" style="fill:#263238"></path><path d="M301.35,198.61c-5-4.18-40.17-37.44-102.88-57.38h-.05c-3.9-1.26-7.92-2.44-12-3.57,10.6-10.79,34.57-27.16,36-26.42S251.53,84,276.5,72.51c11.79-5.41,47.64-8.8,53.6-3.16,3.36,3.19,5.74,24.43,5.89,42.52.12,13.91-1.09,25.95-4.15,26.46-7.12,1.22-14.23-26.09-17.21-24.56s-3.66,4.16-2.85,10.76-7.37,8.54-7.37,8.54-.66,1.49,2.68,11.36S301.35,198.61,301.35,198.61Z" style="fill:#263238"></path><path d="M301.35,198.61c-1.81.29-6.67-2.72-14-7.57-9.93-6.51-24.39-16.3-42-25.65-30.71-16.29-56.58-25.14-58.92-27.74-1.34-1.48,7.77-11.45,13.63-12.44,4.61-.78,41.61,12.15,76.38,34.66a253.47,253.47,0,0,1,27.69,20.61C305.79,182,302.7,198.4,301.35,198.61Z" style="fill:#514F8C"></path><path d="M248.24,173.92l-37.82-20,13.64-25.73,37.82,20.06ZM219.82,151l25.53,13.54,7.13-13.44L227,137.55Z" style="fill:#ebebeb"></path></g></svg>